{"title":"WWE-TNA-ROH IWA-MS Sunday Bloody Sunday 3.9.2014-3vil","uid":10084164,"size":2533780073,"categoryP":"video","categoryS":"tv_shows","magnet":"?xt=urn:btih:f7b357490e931ec56015e6d8f78c8f650f71d0f0&amp;dn=WWE-TNA-ROH+IWA-MS+Sunday+Bloody+Sunday+3.9.2014-3vil&amp;tr=udp%3A%2F%2Ftracker.openbittorrent.com%3A80&amp;tr=udp%3A%2F%2Fopen.demonii.com%3A1337&amp;tr=udp%3A%2F%2Ftracker.coppersurfer.tk%3A6969&amp;tr=udp%3A%2F%2Fexodus.desync.com%3A6969","seeders":0,"leechers":1,"uploader":"qtleewest","files":-1,"time":1399067662,"description":"IWA-MS-Sunday.Bloody.Sunday.3.9.2014-3vil.mp4\n\n(IWA) Independent Wrestling Association Mid-South \n&quot;Sunday Bloody Sunday&quot; \nMarch 9, 2014 \nClarksville, IN \n\n\n1. *Fight for Your Spot: Alex Castle vs. Frank Wyatt vs. Tripp Cassidy vs. Zakk Sawyers \n2. The Hooligans vs. Team IOU (Kerry Awful &amp; Nick Iggy) \n3. Danny Cannon vs. Michael Elgin \n4. Angelus Layne &amp; ThunderKitty vs. Dale Patricks &amp; Josh Crane vs. Ian Rotten &amp; Mitch Page vs.\n    Kaden Sade &amp; Russ Jones vs. Two Star Heroes (Chris Castro &amp; Matt Knicks) \n5. Johnny Rotten Sixx vs. Todd Morton \n6. BJ Whitmer &amp; Jimmy Jacobs vs. White America (Josh Crane &amp; Trik Davis) \n7. Gary Jay, Jack Thriller &amp; Shane Mercer vs. Hy Zaya, Matt Cage &amp; Necro Butcher \n8. *Barbed Wire Bull Rope: John Wayne Murdoch vs. Matt Tremont \n9. B-Boy vs. Christian Rose vs. Drake Younger vs. Kyle O'Reilly \n10. *Stretcher match: Corporal Robinson, Heidi Lovelace &amp; Mickie Knuckles vs. Jordynne Grace, Kongo Kong &amp; Randi West \n11. Chris Hero vs. Reed Bentley \n\n*Video \nFormat                                  : AVC \nFormat profile                          : &lt;a class=&quot;__cf_email__&quot; href=&quot;/cdn-cgi/l/email-protection&quot; data-cfemail=&quot;81c3e0f2e4ede8efe4c1cdb2afb1&quot;&gt;[email&amp;#160;protected]&lt;/a&gt;&lt;script cf-hash='f9e31' type=&quot;text/javascript&quot;&gt;\n/* &lt;![CDATA[ */!function(){try{var t=&quot;currentScript&quot;in document?document.currentScript:function(){for(var t=document.getElementsByTagName(&quot;script&quot;),e=t.length;e--;)if(t[e].getAttribute(&quot;cf-hash&quot;))return t[e]}();if(t&amp;&amp;t.previousSibling){var e,r,n,i,c=t.previousSibling,a=c.getAttribute(&quot;data-cfemail&quot;);if(a){for(e=&quot;&quot;,r=parseInt(a.substr(0,2),16),n=2;a.length-n;n+=2)i=parseInt(a.substr(n,2),16)^r,e+=String.fromCharCode(i);e=document.createTextNode(e),c.parentNode.replaceChild(e,c)}}}catch(u){}}();/* ]]&gt; */&lt;/script&gt; \nFormat settings, CABAC                  : No \nFormat settings, ReFrames                : 2 frames \nCodec ID                                : avc1 \nDuration                                : 2h 54mn \nBit rate                                : 1 800 Kbps \nWidth                                    : 854 pixels \nHeight                                  : 480 pixels \nDisplay aspect ratio                    : 16:9 \nFrame rate mode                          : Constant \nFrame rate                              : 29.970 fps \nColor space                              : YUV \nChroma subsampling                      : 4:2:0 \nBit depth                                : 8 bits \nScan type                                : Progressive \nBits/(Pixel*Frame)                      : 0.147 \nStream size                              : 2.20 GiB (93%) \n\n*Audio \nID                                      : 2 \nFormat                                  : AAC \nFormat profile                          : LC \nCodec ID                                : 40 \nBit rate                                : 128 Kbps \nChannel(s)                              : 2 channels \nSampling rate                            : 48.0 KHz \nCompression mode                        : Lossy \nStream size                              : 160 MiB (7%) \nLanguage                                : English \n\n","torrent":{"xt":"urn:btih:f7b357490e931ec56015e6d8f78c8f650f71d0f0","amp;dn":"WWE-TNA-ROH+IWA-MS+Sunday+Bloody+Sunday+3.9.2014-3vil","amp;tr":["udp%3A%2F%2Ftracker.openbittorrent.com%3A80","udp%3A%2F%2Fopen.demonii.com%3A1337","udp%3A%2F%2Ftracker.coppersurfer.tk%3A6969","udp%3A%2F%2Fexodus.desync.com%3A6969"],"infoHash":"f7b357490e931ec56015e6d8f78c8f650f71d0f0","infoHashBuffer":{"type":"Buffer","data":[247,179,87,73,14,147,30,197,96,21,230,216,247,140,143,101,15,113,208,240]},"announce":[],"urlList":[]}}